<svg width="24" height="24" viewBox="0 0 24 24" fill="none" xmlns="http://www.w3.org/2000/svg">
<path d="M20 12C20 13.5823 19.5308 15.129 18.6518 16.4446C17.7727 17.7602 16.5233 18.7855 15.0615 19.391C13.5997 19.9965 11.9911 20.155 10.4393 19.8463C8.88743 19.5376 7.46197 18.7757 6.34315 17.6569C5.22433 16.538 4.4624 15.1126 4.15372 13.5607C3.84504 12.0089 4.00347 10.4003 4.60897 8.93853C5.21447 7.47672 6.23985 6.22729 7.55544 5.34824C8.87103 4.46919 10.4178 4 12 4" stroke="white" stroke-width="2" stroke-miterlimit="10"/>
<path d="M12 3.062V11C12 11.2652 12.1054 11.5196 12.2929 11.7071C12.4804 11.8946 12.7348 12 13 12H20.938C21.0798 11.9993 21.2199 11.9688 21.3492 11.9105C21.4784 11.8521 21.594 11.7673 21.6883 11.6614C21.7826 11.5554 21.8535 11.4309 21.8966 11.2957C21.9396 11.1606 21.9537 11.0179 21.938 10.877C21.6839 8.62664 20.6736 6.52916 19.0722 4.92781C17.4708 3.32645 15.3734 2.31607 13.123 2.062C12.9821 2.04629 12.8394 2.06041 12.7043 2.10343C12.5691 2.14646 12.4446 2.21743 12.3386 2.31174C12.2327 2.40605 12.1479 2.52159 12.0895 2.65085C12.0312 2.7801 12.0007 2.92019 12 3.062V3.062Z" stroke="white" stroke-width="2" stroke-miterlimit="10" stroke-linecap="round"/>
</svg>
