<svg width="16" height="16" viewBox="0 0 16 16" fill="none" xmlns="http://www.w3.org/2000/svg">
<path d="M4 13L4 4H6V13C6 13.2652 5.89464 13.5196 5.70711 13.7071C5.51957 13.8946 5.26522 14 5 14C4.73478 14 4.48043 13.8946 4.29289 13.7071C4.10536 13.5196 4 13.2652 4 13V13Z" fill="#616161"/>
<path d="M12 3V12H10V3C10 2.73478 10.1054 2.48043 10.2929 2.29289C10.4804 2.10536 10.7348 2 11 2C11.2652 2 11.5196 2.10536 11.7071 2.29289C11.8946 2.48043 12 2.73478 12 3V3Z" fill="#616161"/>
<path d="M4.63695 2.124L1.75995 5.156C1.69268 5.22695 1.6477 5.31606 1.63055 5.41232C1.61341 5.50857 1.62486 5.60774 1.66348 5.69755C1.70211 5.78736 1.76622 5.86388 1.84789 5.91764C1.92955 5.97139 2.02518 6.00003 2.12295 6H7.87695C7.97472 6.00003 8.07035 5.97139 8.15201 5.91764C8.23367 5.86388 8.29778 5.78736 8.33641 5.69755C8.37504 5.60774 8.38649 5.50857 8.36934 5.41232C8.3522 5.31606 8.30721 5.22695 8.23995 5.156L5.36295 2.124C5.31622 2.07467 5.25994 2.03539 5.19753 2.00854C5.13512 1.98169 5.06789 1.96785 4.99995 1.96785C4.93201 1.96785 4.86478 1.98169 4.80237 2.00854C4.73996 2.03539 4.68367 2.07467 4.63695 2.124Z" fill="#616261"/>
<path d="M10.6369 13.876L7.75995 10.844C7.69268 10.773 7.6477 10.6839 7.63055 10.5877C7.61341 10.4914 7.62486 10.3923 7.66348 10.3024C7.70211 10.2126 7.76622 10.1361 7.84789 10.0824C7.92955 10.0286 8.02518 9.99997 8.12295 10H13.8769C13.9747 9.99997 14.0703 10.0286 14.152 10.0824C14.2337 10.1361 14.2978 10.2126 14.3364 10.3024C14.375 10.3923 14.3865 10.4914 14.3693 10.5877C14.3522 10.6839 14.3072 10.773 14.2399 10.844L11.3629 13.876C11.3162 13.9253 11.2599 13.9646 11.1975 13.9915C11.1351 14.0183 11.0679 14.0322 10.9999 14.0322C10.932 14.0322 10.8648 14.0183 10.8024 13.9915C10.74 13.9646 10.6837 13.9253 10.6369 13.876Z" fill="#616261"/>
</svg>
