<svg width="16" height="16" viewBox="0 0 16 16" fill="none" xmlns="http://www.w3.org/2000/svg">
<path d="M13.727 2H3.00096C2.81923 2.00002 2.64093 2.04957 2.48525 2.14332C2.32956 2.23707 2.20236 2.37147 2.11732 2.53209C2.03229 2.6927 1.99263 2.87345 2.00261 3.05491C2.01259 3.23637 2.07183 3.41168 2.17396 3.562L6.86396 9V14.5C6.86396 14.6326 6.91664 14.7598 7.01041 14.8536C7.10418 14.9473 7.23135 15 7.36396 15H9.36396C9.49657 15 9.62375 14.9473 9.71752 14.8536C9.81128 14.7598 9.86396 14.6326 9.86396 14.5V9L14.554 3.562C14.6561 3.41168 14.7153 3.23637 14.7253 3.05491C14.7353 2.87345 14.6956 2.6927 14.6106 2.53209C14.5256 2.37147 14.3984 2.23707 14.2427 2.14332C14.087 2.04957 13.9087 2.00002 13.727 2V2Z" stroke="#616161" stroke-width="2" stroke-miterlimit="10"/>
</svg>
